<svg version="1.1" id="Layer_1" xmlns="http://www.w3.org/2000/svg" xmlns:xlink="http://www.w3.org/1999/xlink" x="0" y="0" viewBox="0 0 482.5 321.7" xml:space="preserve">
<style>.st1{fill:#fada09}.st2{fill:#d8131a}</style><defs><path id="SVGID_1_" d="M0 0h482.5v321.7H0z"/></defs>
<clipPath id="SVGID_2_"><use xlink:href="#SVGID_1_" overflow="visible"/></clipPath><g clip-path="url(#SVGID_2_)">
<path d="M498.5-8.3v38c-2.3 0-4.7-.1-7-.1H-12.3c-.1-10.5-.2-21-.1-31.5 0-7.3-.9-6.4 6.3-6.4h504.6z" fill="#d8121a"/>
<path d="M-12.3 29.6h503.8c2.3 0 4.7 0 7 .1v38c-2.3-.1-4.6-.3-7-.3H-12.4c.1-12.6.1-25.2.1-37.8z" fill="#fada09"/>
<path d="M-12.3 67.4h503.9c2.3 0 4.6.2 7 .3v38c-2.5-.1-5-.4-7.4-.4H-12.2c-.1-12.7-.1-25.3-.1-37.9zM498.5 142.7v38c-2.2.1-4.3.1-6.5.1H-4.9c-2.5 0-5 .1-7.5.1v-38.1H494c1.5.1 3 0 4.5-.1z" fill="#d8121a"/>
<path d="M-12.3 181c2.5 0 5-.1 7.5-.1h496.9c2.2 0 4.3-.1 6.5-.1v38c-2.3 0-4.7.1-7 .1H-12.2c-.1-12.8-.1-25.3-.1-37.9z" fill="#fada09"/>
<path d="M-12.3 218.7h503.8c2.3 0 4.7 0 7-.1v38H-12.3v-37.9z" fill="#d8121a"/>
<path d="M-12.3 256.7h510.8v38c-2.3-.1-4.7-.1-7-.1H42.7c-18.3 0-36.7 0-55 .1v-38z" fill="#fada09"/>
<path d="M-12.3 294.6c18.3 0 36.7-.1 55-.1h448.8c2.3 0 4.7.1 7 .1 0 11.8-.1 23.7.1 35.5 0 2.2-.4 2.9-2.6 2.5-.6-.1-1.3 0-2 0H-12.5c.1-12.6.2-25.3.2-38z" fill="#d8121a"/>
<path d="M498.5 142.7c-1.5.1-3 .3-4.5.3H-12.4v-37.7H491c2.5 0 5 .3 7.4.4.1 12.3.1 24.6.1 37z" fill="#fada09"/>
<path d="M-12.3 105.2v189.4c-.1 12.7-.1 25.4-.2 38.1-.6-.3-1.7.7-2-.5-.2-1.1 0-2.3 0-3.5 0-111.3 0-222.5-.1-333.8 0-3.7.9-4.3 4.4-4.3 168.2.1 336.5.1 504.7.1 1.3 0 3.1-1.1 4 .9H-6.2c-7.2 0-6.3-.9-6.3 6.4 0 10.5.1 21 .1 31.5v37.8c.1 12.7.1 25.3.1 37.9z" fill="#fada09"/></g></svg>