<svg version="1.1" id="Layer_1" xmlns="http://www.w3.org/2000/svg" xmlns:xlink="http://www.w3.org/1999/xlink" x="0" y="0" viewBox="0 0 170 170" xml:space="preserve">
<style>.st1{fill:#f9d609}.st3{fill:#d8121a}</style><defs><circle id="SVGID_1_" cx="85" cy="85" r="85"/></defs><clipPath id="SVGID_2_"><use xlink:href="#SVGID_1_" overflow="visible"/></clipPath><g clip-path="url(#SVGID_2_)">
<path class="st1" d="M-41.2-.1h256.8c-.1 6.3-.1 12.7-.2 19H-41.1c0-6.3 0-12.7-.1-19z" fill="#f9d609"/>
<path d="M215.5 18.9c.1-6.3.1-12.7.2-19 1.7-.4 1.1 1 1.1 1.6 0 56 0 112 .1 168 0 3.8-2.1 2.7-3.9 2.7H-12.4c-9 0-18.1-.1-27.1.1-2.3 0-2.8-.5-2.8-2.8.1-56 .1-112 .1-168 0-.7-.7-2 1.1-1.6.1 6.3.1 12.7.2 19V152c-.1 4.3.2 8.7-.3 13-.5 5 1.2 6.2 6.1 6.2 77.6-.2 155.2-.1 232.8-.2 5.9 0 13.9 2.7 17.1-1.1 3.3-4 .9-11.7.7-17.8V18.9z" fill="#fefefe"/>
<path class="st3" d="M-41 37.8V18.9h256.5v18.9H-41z" fill="#d8121a"/>
<path class="st1" d="M-41 37.8h256.5V57H-41V37.8zM-41 95.1V75.9c85.5 0 171 0 256.5-.1V95c-85.5.1-171 .1-256.5.1zM-41 133.1v-19.2h256.5v19.2H-41zM215.5 152c.2 6.1 2.5 13.9-.7 17.8-3.2 3.8-11.2 1.1-17.1 1.1-77.6.1-155.2 0-232.8.2-4.9 0-6.7-1.2-6.1-6.2.5-4.3.2-8.6.3-13 85.4.1 170.9.1 256.4.1z" fill="#f9d609"/>
<path class="st3" d="M215.5 75.8c-85.5 0-171 0-256.5.1V57h256.5v18.8zM215.5 113.9H-41V95.1c85.5 0 171 0 256.5-.1v18.9zM215.5 152H-41v-18.9h256.5V152z" fill="#d8121a"/></g></svg>