<svg xmlns="http://www.w3.org/2000/svg" xmlns:xlink="http://www.w3.org/1999/xlink" viewBox="0 0 170 170" xml:space="preserve"><defs><circle id="a" cx="85" cy="85" r="85"/></defs><clipPath id="b"><use xlink:href="#a" overflow="visible"/></clipPath><g clip-path="url(#b)"><path d="M-1.1-.2h255c1.4 0 1.7.2 1.7 1.7v169.4H1c-1.8 0-2.2-.4-2.2-2.2.1-56.3.1-112.6.1-168.9zm18.6 34.8c.9.7 1.3 1 1.8 1.4 3.9 2.9 7.9 5.8 11.8 8.6 1 .7 1.2 1.4.8 2.6-1.8 5.2-3.4 10.4-5.1 15.7.8 0 1.2-.5 1.6-.9 3.9-2.8 7.9-5.7 11.8-8.6 1.1-.8 1.8-.9 3 0 4.3 3.3 8.8 6.4 13.2 9.7.2-.8-.2-1.3-.3-1.8-1.5-4.7-3-9.4-4.6-14-.4-1.2-.3-1.8.8-2.6 4.1-2.9 8.1-5.8 12.1-8.8.4-.3 1-.4 1.1-1.2-5.4 0-10.7-.1-16 0-1.5 0-2.1-.4-2.6-1.8-1.6-5.2-3.3-10.4-5-15.6-.6.5-.6 1.2-.8 1.8-1.5 4.6-3 9.1-4.4 13.7-.5 1.5-1.1 2-2.7 1.9-5.4-.2-10.7-.1-16.5-.1zm91.1 3.2.5-.5c-1.1-1-2.2-1.9-3.3-2.9-.8-.6-.8-1.3-.3-2.1.7-1.3 1.4-2.6 2.3-4.3-1.8.9-3.1 1.4-4.4 2.1-.8.5-1.3.3-2-.3-1-1.1-2.2-2.1-3.4-3.1.2 1.4.2 2.8.6 4.2.3 1.2-.2 1.7-1.1 2.1-1.3.6-2.7 1.1-3.9 2.1 1.6.3 3 .6 4.5.8 1 .1 1.4.5 1.5 1.5.1 1.4.4 2.9.7 4.7.9-1.7 1.6-2.9 2.2-4.1.4-.8.8-1.3 1.9-1 1.3.5 2.7.6 4.2.8zM78.4 71.6c-.1.1-.2.2-.3.2.6 1 1.2 2 1.9 2.9 1.2 1.3 1 2.4-.2 3.6-.8.8-1.5 1.8-2.4 3 1.9-.5 3.4-.8 4.8-1.3.9-.3 1.4 0 1.8.7.8 1.3 1.6 2.5 2.7 4 .1-1.8.3-3.1.3-4.4 0-1.2.4-1.8 1.6-2 1.4-.2 2.7-.7 4.4-1.2-1.7-.7-3.1-1.3-4.5-1.7-1-.3-1.2-.8-1.1-1.8.1-1.4 0-2.8 0-4.5-1.1 1.3-2 2.4-2.9 3.6-.5.7-1 .9-1.9.6-1.4-.7-2.8-1.2-4.2-1.7zm22.9-20.5c-.5 1.8-1 3.1-1.3 4.5-.3 1.2-.9 1.6-2.1 1.6-1.4-.1-2.7 0-4.1 0 1.2 1.2 2.3 2.1 3.6 2.8.9.5 1.1 1.1.7 2-.5 1.4-.8 2.8-1.3 4.7 1.6-1.2 2.8-2.2 4-3.1.6-.5 1.1-.6 1.8-.1 1.2.9 2.6 1.7 4.2 2.8-.6-1.6-1-2.9-1.5-4-.5-1.2-.6-2.1.8-2.9 1.1-.7 2.1-1.6 3.2-2.5-1.8 0-3.3-.1-4.8 0-.9 0-1.3-.3-1.5-1.1-.5-1.4-1-2.8-1.7-4.7zm-15-26.3c.5-1.8.5-3.2.5-4.7 0-.8.3-1.2 1.2-1.4 1.5-.3 3-.7 4.9-1.2-1.5-.7-2.7-1.3-3.9-1.6-1.4-.4-1.8-1.2-1.6-2.6.2-1.3.2-2.6.4-4.3-1.3 1.5-2.3 2.6-3.3 3.8-.5.6-1 .8-1.8.4-1.4-.6-2.8-1.4-4.5-1.7.9 1.5 1.6 2.8 2.5 4.1.5.7.4 1.2-.2 1.8-1 1.1-2 2.3-3.2 3.7 1.3-.3 2.2-.4 3.1-.6 2.9-.7 2.9-.7 4.4 1.9.4.8.9 1.5 1.5 2.4z" fill="#e5262a"/><path d="M-1.1-.2v168.9c0 1.8.4 2.2 2.2 2.2h254.6c-.1.2.3.7-.4.7H.2c-1.3 0-1.6-.3-1.6-1.6 0-56.2 0-112.4.1-168.5-.1-.6-.5-1.3.2-1.7z" fill="#fff"/><path d="M17.5 34.6c5.8 0 11.1-.1 16.4 0 1.6 0 2.3-.4 2.7-1.9C38 28.1 39.5 23.6 41 19c.2-.6.2-1.3.8-1.8 1.7 5.2 3.4 10.4 5 15.6.4 1.5 1.1 1.9 2.6 1.8 5.3-.1 10.7 0 16 0-.1.7-.7.9-1.1 1.2-4 2.9-8 5.9-12.1 8.8-1.1.7-1.2 1.4-.8 2.6 1.6 4.6 3.1 9.3 4.6 14 .2.5.5 1 .3 1.8-4.5-3.2-8.9-6.4-13.2-9.7-1.2-.9-1.9-.8-3 0-3.9 2.9-7.9 5.8-11.8 8.6-.4.3-.8.8-1.6.9 1.7-5.3 3.4-10.5 5.1-15.7.4-1.2.2-1.8-.8-2.6-4-2.8-7.9-5.7-11.8-8.6-.4-.3-.8-.6-1.7-1.3zm91.1 3.2c-1.4-.2-2.9-.4-4.3-.7-1.1-.3-1.5.2-1.9 1-.6 1.3-1.3 2.5-2.2 4.1-.3-1.8-.6-3.3-.7-4.7-.1-1-.5-1.4-1.5-1.5-1.4-.2-2.9-.5-4.5-.8 1.2-1 2.6-1.5 3.9-2.1 1-.5 1.4-.9 1.1-2.1-.3-1.4-.4-2.8-.6-4.2 1.2 1.1 2.3 2.1 3.4 3.1.6.6 1.2.8 2 .3 1.3-.7 2.6-1.3 4.4-2.1-.9 1.7-1.5 3-2.3 4.3-.5.9-.4 1.5.3 2.1 1.1.9 2.2 1.9 3.3 2.9l-.4.4zM78.4 71.6c1.4.5 2.8 1 4.1 1.6.9.4 1.4.2 1.9-.6.8-1.2 1.8-2.3 2.9-3.6 0 1.7.1 3.1 0 4.5-.1 1 .2 1.5 1.1 1.8 1.4.5 2.8 1.1 4.5 1.7-1.7.5-3 1-4.4 1.2-1.2.2-1.6.8-1.6 2 0 1.3-.2 2.7-.3 4.4-1-1.5-1.9-2.7-2.7-4-.5-.8-.9-1-1.8-.7-1.4.5-2.9.8-4.8 1.3 1-1.2 1.6-2.2 2.4-3 1.2-1.2 1.4-2.2.2-3.6-.8-.9-1.3-1.9-1.9-2.9.2.1.3 0 .4-.1zm22.9-20.5c.7 1.9 1.2 3.3 1.7 4.7.3.8.7 1.1 1.5 1.1 1.5-.1 3 0 4.8 0-1.2.9-2.1 1.9-3.2 2.5-1.3.8-1.3 1.7-.8 2.9s.9 2.4 1.5 4c-1.6-1.1-2.9-1.9-4.2-2.8-.7-.5-1.2-.5-1.8.1-1.2 1-2.4 1.9-4 3.1.5-1.9.9-3.3 1.3-4.7.3-.9.1-1.5-.7-2-1.2-.7-2.4-1.6-3.6-2.8 1.4 0 2.7-.1 4.1 0 1.2.1 1.8-.4 2.1-1.6.3-1.4.8-2.7 1.3-4.5zm-15-26.3c-.6-.9-1-1.7-1.5-2.4-1.5-2.6-1.5-2.6-4.4-1.9-.9.2-1.8.4-3.1.6 1.3-1.4 2.2-2.6 3.2-3.7.6-.6.7-1.1.2-1.8-.8-1.3-1.6-2.6-2.5-4.1 1.7.4 3.1 1.1 4.5 1.7.8.4 1.3.3 1.8-.4 1-1.2 2-2.3 3.3-3.8-.1 1.7-.2 3-.4 4.3-.2 1.4.2 2.2 1.6 2.6 1.2.4 2.3 1 3.9 1.6-1.9.5-3.4.9-4.9 1.2-.9.2-1.2.6-1.2 1.4-.1 1.5-.1 3-.5 4.7z" fill="#f5e400"/></g></svg>