<svg xmlns="http://www.w3.org/2000/svg" xmlns:xlink="http://www.w3.org/1999/xlink" viewBox="0 0 482.5 321.7" xml:space="preserve"><defs><path id="a" d="M0 0h482.5v321.7H0z"/></defs><clipPath id="b"><use xlink:href="#a" overflow="visible"/></clipPath><g clip-path="url(#b)"><path d="M485.4 323.8c-.3.5.7 1.6-.8 1.5h-2.7c-160.2 0-320.3 0-480.5.1-2.9 0-3.5-.6-3.5-3.5C-2 215.5-2 109-1.9 2.6c0-1.1-.9-2.6.7-3.5 0 34.5.1 69.1-.1 103.6 0 3.9 1 4.7 4.8 4.7 160.7-.1 321.3-.1 482-.1v108.2c-160.8 0-321.6 0-482.4-.1-3.4 0-4.4.8-4.4 4.3.2 33.1.2 66.3 0 99.4 0 3.9 1 4.7 4.8 4.7h481.9z" fill="#fefefe"/><path d="M485.4 107.4c-160.7 0-321.3 0-482 .1-3.8 0-4.8-.8-4.8-4.7.3-34.6.2-69.1.2-103.7C159.9-.9 321-.9 482.1-1c3 0 3.5.9 3.4 3.6-.1 35-.1 69.9-.1 104.8z" fill="#ad1c28"/><path d="M485.4 323.8c-160.7 0-321.3 0-482 .1-3.8 0-4.8-.8-4.8-4.7.2-33.1.2-66.3 0-99.4 0-3.6 1-4.3 4.4-4.3 160.8.1 321.6.1 482.4.1v108.2z" fill="#21468a"/></g></svg>