<svg xmlns="http://www.w3.org/2000/svg" xmlns:xlink="http://www.w3.org/1999/xlink" viewBox="0 0 170 170" xml:space="preserve"><defs><circle id="a" cx="85" cy="85" r="85"/></defs><clipPath id="b"><use xlink:href="#a" overflow="visible"/></clipPath><g clip-path="url(#b)"><path d="M213 170.4c-.1.1.2.4-.2.4H-40.4c-1.5 0-1.8-.3-1.8-1.8 0-55.6 0-111.2.1-166.8 0-.6-.5-1.4.4-1.8 0 18.1 0 36.2-.1 54.2 0 2 .5 2.5 2.5 2.5 84.1-.1 168.2 0 252.4 0v56.7H-39.5c-1.8 0-2.3.4-2.3 2.3.1 17.3.1 34.7 0 52 0 2.1.5 2.5 2.5 2.5 84.1-.2 168.2-.2 252.3-.2z" fill="#fefefe"/><path d="M213 57.1H-39.4c-2 0-2.5-.4-2.5-2.5.1-18.1.1-36.2.1-54.2h253c1.6 0 1.8.4 1.8 1.9v54.8z" fill="#ad1c28"/><path d="M213 170.4H-39.4c-2 0-2.5-.4-2.5-2.5.1-17.3.1-34.7 0-52 0-1.9.5-2.3 2.3-2.3H213v56.8z" fill="#21468a"/></g></svg>