<svg xmlns="http://www.w3.org/2000/svg" xmlns:xlink="http://www.w3.org/1999/xlink" viewBox="0 0 482.5 321.7" xml:space="preserve"><defs><path id="a" d="M0 0h482.5v321.7H0z"/></defs><clipPath id="b"><use xlink:href="#a" overflow="visible"/></clipPath><g clip-path="url(#b)"><path d="M486.4 324.3c-.4 2-1.9.9-2.8.9-13.8.1-27.6.1-41.4.1-146.8 0-293.5 0-440.3.1-3.2 0-4.1-.5-4.1-3.9.1-106.4.1-212.6.2-318.9 0-1.2-1-2.9.9-3.7 0 106.9 0 213.8-.1 320.7 0 3.8.8 4.8 4.7 4.8 50.8-.2 101.7-.2 152.5 0 4.2 0 5.3-1 5.3-5.2-.1-105.3-.1-210.7-.1-316 0-1.4-.1-2.8-.1-4.1h163.1c0 .5-.1.9-.1 1.4 0 106.6 0 213.1-.1 319.7 0 4 1.6 4.3 4.8 4.3 52.5-.2 105-.2 157.6-.2z" fill="#fefefe"/><path d="M161-1c0 1.4.1 2.8.1 4.1 0 105.3 0 210.7.1 316 0 4.3-1.1 5.3-5.3 5.2-50.8-.1-101.7-.1-152.5 0-3.9 0-4.7-1-4.7-4.8.1-106.8.1-213.7.1-320.5H161z" fill="#002394"/><path d="M486.4 324.3c-52.5 0-105 0-157.5.1-3.2 0-4.8-.3-4.8-4.3.1-106.6.1-213.1.1-319.7 0-.5 0-.9.1-1.4 52.7 0 105.5 0 158.4-.1 3.2 0 3.8.6 3.8 3.8-.2 107.2-.1 214.4-.1 321.6z" fill="#ec2939"/></g></svg>