<svg xmlns="http://www.w3.org/2000/svg" xmlns:xlink="http://www.w3.org/1999/xlink" viewBox="0 0 482.5 321.7" xml:space="preserve"><defs><path id="a" d="M0 0h482.5v321.7H0z"/></defs><clipPath id="b"><use xlink:href="#a" overflow="visible"/></clipPath><g clip-path="url(#b)"><path d="M485.1 216.1c0 35.1 0 70.2.1 105.3 0 2.6-.4 3.3-3.2 3.3-160-.1-319.9-.1-479.9 0-2.9 0-3.4-.8-3.4-3.5 0-106.2 0-212.4-.1-318.6C-1.4-.1-1-.9 2-.9c160 .1 319.9.1 479.9.2.9 0 2.7-1.4 3.2.8H5.7C4.5.1 3.3.2 2.1.1 0-.2-.4.8-.4 2.7c.1 35.1.1 70.2.2 105.3 0 33.7-.1 67.5-.1 101.2 0 7.6-1.2 6.8 6.6 6.8h472.5c2.1-.1 4.2 0 6.3.1z" fill="#fecd00"/><path d="M485.1 216.1c-2.1-.1-4.2-.2-6.3-.2H6.3c-7.8 0-6.6.9-6.6-6.8 0-33.7.1-67.5.1-101.2h479c2.1 0 4.2-.2 6.3-.2v108.4z" fill="#dc0000"/><path d="M485.1 107.6c-2.1.1-4.2.2-6.3.2H-.2c-.1-35-.1-70.1-.2-105.1C-.4.8 0-.1 2.1.1c1.2.1 2.4 0 3.6 0h479.4v107.5z"/></g></svg>