<svg xmlns="http://www.w3.org/2000/svg" xmlns:xlink="http://www.w3.org/1999/xlink" viewBox="0 0 170 170" xml:space="preserve"><defs><circle id="a" cx="85" cy="85" r="85"/></defs><clipPath id="b"><use xlink:href="#a" overflow="visible"/></clipPath><g clip-path="url(#b)"><path d="M213.2 114v55.3c0 1.3-.2 1.7-1.7 1.7H-40.8c-1.2 0-1.6-.1-1.6-1.5 0-55.8 0-111.7.1-167.5 0-.5-.6-1.2.4-1.4v10.7c0 15.3.1 30.7.1 46 0 17.7-.1 35.4 0 53.1 0 4-.6 3.6 3.5 3.6h248.2c1.1-.2 2.2-.1 3.3 0z" fill="#fecd00"/><path d="M213.2 114c-1.1 0-2.2-.1-3.3-.1H-38.3c-4.1 0-3.5.5-3.5-3.6V57.2h251.6c1.1 0 2.2-.1 3.3-.1.1 18.9.1 37.9.1 56.9z" fill="#dc0000"/><path d="M213.2 57c-1.1 0-2.2.1-3.3.1H-41.7c0-15.3-.1-30.7-.1-46V.4h252.9c1.8 0 2.2.4 2.2 2.2-.1 18.1-.1 36.3-.1 54.4z"/></g></svg>