<svg xmlns="http://www.w3.org/2000/svg" xmlns:xlink="http://www.w3.org/1999/xlink" viewBox="0 0 482.5 321.7" xml:space="preserve"><defs><path id="a" d="M0 0h482.5v321.7H0z"/></defs><clipPath id="b"><use xlink:href="#a" overflow="visible"/></clipPath><g clip-path="url(#b)"><path d="M-2.5-1.2c.2-.3-.4-.9.4-.8h3.3c161.1 0 322.2 0 483.4-.1 3.1 0 3.8.7 3.8 3.8-.1 106.9-.1 213.7 0 320.6 0 3.1-.7 3.8-3.8 3.8-161.1-.1-322.2-.1-483.4-.1-1.2 0-2.8.9-3.7-.8 52.9 0 105.7 0 158.6.1 3.6 0 4.4-.9 4.4-4.5-.1-105.9-.1-211.7 0-317.6 0-3.5-.8-4.5-4.4-4.5-52.9.1-105.7.1-158.6.1zM323.7 162c0 52.9 0 105.8-.1 158.6 0 3.8 1.1 4.6 4.7 4.6 51.4-.1 102.8-.1 154.2 0 3.4 0 4.2-.8 4.2-4.2-.1-106-.1-212.1 0-318.1 0-3.5-.9-4.2-4.3-4.2-51.4.1-102.8.1-154.2 0-3.6 0-4.7.8-4.7 4.6.2 52.9.2 105.8.2 158.7z" fill="#fefefe"/><path d="M-2.5-1.2c52.9 0 105.7 0 158.6-.1 3.6 0 4.4.9 4.4 4.5-.1 105.9-.1 211.7 0 317.6 0 3.5-.8 4.5-4.4 4.5-52.9-.1-105.7-.1-158.6-.1V-1.2z" fill="#009146"/><path d="M323.7 162c0-52.9 0-105.8-.1-158.6 0-3.8 1-4.6 4.7-4.6 51.4.1 102.8.1 154.2 0 3.4 0 4.3.7 4.3 4.2-.1 106-.1 212.1 0 318.1 0 3.4-.9 4.2-4.2 4.2-51.4-.1-102.8-.1-154.2 0-3.6 0-4.7-.8-4.7-4.6V162z" fill="#cd2b37"/></g></svg>