<svg version="1.1" id="Layer_1" xmlns="http://www.w3.org/2000/svg" xmlns:xlink="http://www.w3.org/1999/xlink" x="0" y="0" viewBox="0 0 170 170" xml:space="preserve">
<style>.st1{fill:#fefefe}</style><defs><circle id="SVGID_1_" cx="85" cy="85" r="85"/></defs><clipPath id="SVGID_2_"><use xlink:href="#SVGID_1_" overflow="visible"/></clipPath><g clip-path="url(#SVGID_2_)">
<path class="st1" d="M43 .4h85.2c0 .6-.1 1.3-.1 1.9v166.2c0 .6.1 1.3.1 1.9H43c0-.6.1-1.3.1-1.9V2.3c0-.6 0-1.2-.1-1.9z"/>
<path d="M43 .4c0 .6.1 1.3.1 1.9v166.2c0 .6-.1 1.3-.1 1.9h-84.8V.4H43z" fill="#009146"/>
<path d="M128.2 170.4c0-.6-.1-1.3-.1-1.9V2.3c0-.6.1-1.3.1-1.9h83c1.3 0 1.8.1 1.8 1.7-.1 55.6-.1 111.1 0 166.7 0 1.6-.5 1.7-1.8 1.7-27.6-.1-55.3-.1-83-.1z" fill="#cd2b37"/>
<path d="M-41.8.4v170c-.9-.4-.4-1.2-.4-1.7V2.3c0-.6-.4-1.4.4-1.9z" fill="#fff"/></g></svg>