<svg xmlns="http://www.w3.org/2000/svg" xmlns:xlink="http://www.w3.org/1999/xlink" viewBox="0 0 170 170" xml:space="preserve"><defs><circle id="a" cx="85" cy="85" r="85"/></defs><clipPath id="b"><use xlink:href="#a" overflow="visible"/></clipPath><g clip-path="url(#b)"><path d="M85.4 170.7H-40.8c-1.2 0-1.5-.2-1.5-1.5V1.7c0-1.2.2-1.5 1.5-1.5H212c1.2 0 1.5.2 1.5 1.5v167.5c0 1.2-.2 1.5-1.5 1.5H85.4zm-.2-136.3c-28.1 0-51 22.9-51.1 50.9 0 28.1 22.9 51 50.9 51.1 28.2 0 51.2-22.9 51.2-51 0-28.2-22.9-51-51-51z" fill="#fefefe"/><path d="M85.2 34.4c28.1 0 51 22.9 51 51 0 28.2-22.9 51-51.2 51-28.1 0-51-23-50.9-51.1.1-28.1 23-50.9 51.1-50.9z" fill="#bb012d"/></g></svg>