<svg xmlns="http://www.w3.org/2000/svg" xmlns:xlink="http://www.w3.org/1999/xlink" viewBox="0 0 482.5 321.7" xml:space="preserve"><defs><path id="a" d="M0 0h482.5v321.7H0z"/></defs><clipPath id="b"><use xlink:href="#a" overflow="visible"/></clipPath><g clip-path="url(#b)"><path d="M241.3 326c-80.7 0-161.4 0-242 .1-2.4 0-2.8-.5-2.8-2.8.1-107.5.1-214.9 0-322.3 0-2.4.5-2.8 2.8-2.8 161.6.1 323.2.1 484.7 0 2.4 0 2.8.5 2.8 2.8-.1 107.4-.1 214.8 0 322.2 0 2.4-.5 2.8-2.8 2.8H241.3zm.9-262.5c-54 0-98.1 43.8-98.1 97.7-.1 53.9 43.8 98 97.7 98.1 54.2.1 98.3-43.8 98.3-97.8-.1-54-44-98-97.9-98z" fill="#fefefe"/><path d="M242.2 63.5c53.9 0 97.9 44 97.9 97.9 0 54-44.1 97.9-98.3 97.8-53.9-.1-97.8-44.2-97.7-98.1 0-53.8 44-97.6 98.1-97.6z" fill="#bb012d"/></g></svg>