<svg version="1.1" id="Layer_1" xmlns="http://www.w3.org/2000/svg" xmlns:xlink="http://www.w3.org/1999/xlink" x="0" y="0" viewBox="0 0 482.5 321.7" xml:space="preserve"><style>.st1{fill:#fefefe}</style><defs><path id="SVGID_1_" d="M0 0h482.5v321.7H0z"/></defs><clipPath id="SVGID_2_"><use xlink:href="#SVGID_1_" overflow="visible"/></clipPath><g clip-path="url(#SVGID_2_)"><path class="st1" d="M242.1-2.1c80.7 0 161.5 0 242.2-.1 2.5 0 3.4.2 3.4 3.2-.1 107.2-.1 214.4 0 321.6 0 2.6-.5 3.1-3.1 3.1-161.6-.1-323.1-.1-484.7 0-2.8 0-3.2-.8-3.2-3.4.1-107.1.1-214.2 0-321.2 0-2.7.6-3.3 3.3-3.3 80.7.1 161.4.1 242.1.1zm244.8 218.5c0-36.9-.1-73.8-.1-110.7 0-34.6 0-69.2.1-103.8 0-2.7-.5-3.3-3.2-3.3-161 .1-322 .1-482.9 0-2.7 0-3.2.7-3.2 3.3.1 34.6.1 69.2.1 103.8 0 36.9-.1 73.8-.1 110.7 0 34.6 0 69.2-.1 103.8 0 4.8 0 4.8 4.6 4.8h480.4c.6 0 1.2-.1 1.8 0 2.1.3 2.9-.3 2.9-2.7-.3-35.3-.3-70.6-.3-105.9z"/><path d="M-2.5 216.4c0-36.9.1-73.8.1-110.7 0-34.6 0-69.2-.1-103.8 0-2.6.5-3.3 3.2-3.3 161 .1 322 .1 482.9 0 2.7 0 3.2.6 3.2 3.3-.1 34.6-.1 69.2-.1 103.8 0 36.9.1 73.8.1 110.7-1.6 0-3.1-.1-4.7-.1H2c-1.4-.1-3 0-4.5.1zm244.7-109.1c80.1 0 160.3 0 240.4.1 2.8 0 3.9-.3 3.9-3.6-.1-33.7-.1-67.3 0-101 0-2.7-.6-3.6-3.5-3.6-160.5.1-321 .1-481.5 0-3 0-3.5.9-3.5 3.6.1 33.4.1 66.8 0 100.2 0 3.4.7 4.3 4.2 4.3h240z" fill="#0139a5"/><path d="M-2.5 216.4c1.6 0 3.1-.1 4.7-.1h480.1c1.6 0 3.1.1 4.7.1 0 35.3 0 70.7.1 106 0 2.4-.8 2.9-2.9 2.7-.6-.1-1.2 0-1.8 0H2c-4.6 0-4.6 0-4.6-4.8 0-34.7 0-69.3.1-103.9z" fill="#d42b1e"/><path class="st1" d="M242.2 107.3c-80 0-160 0-240 .1-3.5 0-4.3-.9-4.2-4.3.1-33.5 0-66.9 0-100.3 0-2.7.6-3.6 3.5-3.6 160.5.1 321 .1 481.5 0 2.9 0 3.5.8 3.5 3.6-.1 33.7-.1 67.3 0 101 0 3.2-1.1 3.6-3.9 3.6-80.2-.1-160.3-.1-240.4-.1z"/></g></svg>