<svg xmlns="http://www.w3.org/2000/svg" xmlns:xlink="http://www.w3.org/1999/xlink" viewBox="0 0 170 170" xml:space="preserve"><defs><circle id="a" cx="85" cy="85" r="85"/></defs><clipPath id="b"><use xlink:href="#a" overflow="visible"/></clipPath><g clip-path="url(#b)"><path d="M-41.9 170.4c-.8-.3-.4-1-.4-1.5V2.2c0-1.3.1-1.8 1.7-1.8h252.5c1.2 0 1.7.1 1.7 1.6-.1 55.7 0 111.3-.1 167 0 .5.4 1.2-.4 1.5v-56.6c0-19.2 0-38.4-.1-57.7V1.5h-.2V55c0 1.5-.2 2.1-2 2.1-83.5-.1-167-.1-250.5-.1-1.8 0-2-.6-2-2.1V1.4h-.2v54.8c0 19.2 0 38.4-.1 57.7.1 18.8.1 37.6.1 56.5z" fill="#fefefe"/><path d="M-41.9 170.4v-56.5c.9 0 1.7-.1 2.6-.1h249.7c.9 0 1.7 0 2.6.1v56.6c-84.9-.1-169.9-.1-254.9-.1z" fill="#d42b1e"/><path d="M213.1 113.8c-.9 0-1.7-.1-2.6-.1H-39.2c-.9 0-1.7 0-2.6.1 0-19.2 0-38.4.1-57.7V1.3h.2v53.5c0 1.5.2 2.1 2 2.1 83.5-.1 167-.1 250.5 0 1.7 0 2-.5 2-2.1-.1-17.2 0-34.3 0-51.5v-2h.2V56c-.2 19.4-.2 38.6-.1 57.8z" fill="#0139a5"/></g></svg>