<svg version="1.1" id="Layer_1" xmlns="http://www.w3.org/2000/svg" x="0" y="0" viewBox="0 0 482.5 321.7" xml:space="preserve">
<style>.st1{fill:#c50c1e}</style>
<path d="M495.5-10.3c2.1 1.1.9 3 .9 4.5.1 80.3.1 160.7.1 241 0 29.5 0 59-.1 88.5 0 1.3 1.1 3.1-.9 4 0-25.8 0-51.6-.1-77.4 0-7.7 1.3-7.1-7.2-7.1H-4c-2.5 0-5-.3-7.4-.4v-168c.3-.3.7-.6 1-.9 1.6.2 3.3.5 4.9.5 165.3 0 330.5 0 495.8.1 4.1 0 5.4-.9 5.3-5.2-.2-26.7-.1-53.1-.1-79.6z" fill="#fdc200"/>
<path class="st1" d="M-11.5 242.7c2.5.1 5 .4 7.4.4h492.2c8.6 0 7.2-.5 7.2 7.1.1 25.8.1 51.6.1 77.4-167.5 0-335 0-502.5.1-3.7 0-4.6-.8-4.6-4.6.3-26.8.2-53.6.2-80.4z" fill="#c40b1e"/>
<path d="M495.5-10.3c0 26.5-.1 53 .1 79.5 0 4.3-1.3 5.2-5.3 5.2-165.3-.2-330.6-.2-495.8-.2-1.6 0-3.3-.3-4.9-.5v-84.1c168.6.1 337.3.1 505.9.1z" fill="#c40b1e"/>
<path class="st1" d="M-10.5-10.3v84.1c-.3.3-.7.6-1 .9 0-27 0-54 .1-81 0-1.4-1.1-3.1.9-4z" fill="#fdc200"/></svg>