<svg version="1.1" id="Layer_1" xmlns="http://www.w3.org/2000/svg" xmlns:xlink="http://www.w3.org/1999/xlink" x="0" y="0" viewBox="0 0 170 170" xml:space="preserve"><style>.st2{fill:#c40b1e}</style><defs><circle id="SVGID_1_" cx="85" cy="85" r="85"/></defs><clipPath id="SVGID_2_"><use xlink:href="#SVGID_1_" overflow="visible"/></clipPath><g clip-path="url(#SVGID_2_)"><path d="M-42.5 127.5V42.6c2.1-.1 4.2-.3 6.4-.3 83.6 0 167.1 0 250.7-.1v85.7c-2 0-4-.1-6-.1H-36.9c-1.8.1-3.7-.2-5.6-.3z" fill="#fdc200"/><path class="st2" d="M214.6 42.2c-83.6 0-167.1 0-250.7.1-2.1 0-4.2.2-6.4.3 0-13.4.1-26.7-.1-40.1 0-2.8.5-3.3 3.3-3.3 84.4.1 168.8.1 253.2.1.5.9.8 1.8.8 3-.1 13.3-.1 26.6-.1 39.9zM-42.5 127.5c1.9.1 3.7.3 5.6.3h245.5c2 0 4 0 6 .1 0 12.5.1 25.1.1 37.6 0 5.2 0 5.2-5.2 5.2H-42.4c-.1-14.3-.1-28.7-.1-43.2z"/><path d="M-42.5 170.8h251.9c5.2 0 5.3 0 5.2-5.2 0-12.5-.1-25.1-.1-37.6V42.3c0-13.3.1-26.6.2-39.9 0-1.1-.3-2-.8-3 2.7-.6 3.3.5 3.3 3.2-.1 55.3-.1 110.6 0 165.8 0 2.7-.5 3.3-3.3 3.3-84.4-.1-168.8-.1-253.2-.1-1 0-2.4.9-3.2-.8z" fill="#fefefe"/></g></svg>