<svg id="Layer_1" data-name="Layer 1" xmlns="http://www.w3.org/2000/svg" viewBox="0 0 689.12 459.22">
<defs><style>.cls-1{fill:#ca1831}.cls-2{fill:#fff}.cls-3{fill:#25305e}</style></defs>
<path class="cls-1" d="M294.81-2.27h91.84q0 90.11-.07 180.23c0 2.89.68 3.54 3.55 3.53q147.51-.13 295-.07v91.84q-147.65 0-295.31-.06c-2.59 0-3.25.62-3.25 3.24q.12 90.26.06 180.51h-91.82q0-90.11.07-180.23c0-2.89-.68-3.54-3.55-3.53q-147.51.13-295 .07v-91.84q147.65 0 295.31.06c2.59 0 3.25-.62 3.25-3.24q-.14-90.24-.08-180.51Z" transform="translate(3.83 2.27)" fill="#ca1831"/>
<path class="cls-2" d="M294.81-2.27q0 90.26.06 180.51c0 2.62-.66 3.24-3.25 3.24q-147.62-.1-295.31-.06V151c1.14 0 2.29-.14 3.43-.14h142.65a5.05 5.05 0 0 0-2.35-2.1q-28.83-19.26-57.69-38.48-43-28.71-86-57.43V34.48q86.41 57.64 172.84 115.31a6.87 6.87 0 0 0 4.05 1.07h49.64c.69 0 1.51.39 2.2-.51-.88-.61-1.71-1.22-2.57-1.79Q110.88 74.09-.73-.35c-.84-.56-1.92-.86-2.38-1.91h82.66A17.5 17.5 0 0 0 81-1q90.54 60.39 181.09 120.74c.58.39 1.1 1.14 2.11.73V1.19c0-1.14.09-2.28.14-3.43ZM386.65 457q0-90.26-.06-180.51c0-2.62.66-3.24 3.25-3.24q147.65.11 295.31.06v30.42c-1.14 0-2.29.14-3.43.14H538.5c1.44 1 2.18 1.6 3 2.12q39.81 26.54 79.63 53.07 32.05 21.39 64.07 42.83v18.37c-.23-.17-.45-.36-.68-.52q-86-57.32-171.94-114.66a7.31 7.31 0 0 0-4.3-1.21h-49.64c-.66 0-1.5-.44-2.13.55l2.59 1.75Q570.65 380.59 682.24 455c.84.56 1.94.84 2.34 1.94h-82.67c-.23-.72-.94-.89-1.47-1.25q-90.55-60.4-181.13-120.77c-.59-.39-1.1-1.14-2.09-.71V453.51c0 1.14-.09 2.28-.14 3.43ZM-3.69 273.27q147.51 0 295-.07c2.87 0 3.55.64 3.55 3.53q-.15 90.11-.07 180.23h-30.4c0-1.14-.14-2.28-.14-3.43V333.68c-1.24.77-2.05 1.24-2.83 1.76Q182.17 388.25 103 441.1c-7.84 5.23-15.86 10.2-23.41 15.86H52c.43-.94 1.41-1.23 2.17-1.74q101.46-67.68 203-135.18c5.44-3.6 8.15-7.21 7.12-13.69-.31-1.93-.65-2.56-2.64-2.54q-16.21.14-32.42 0a10.27 10.27 0 0 0-6.11 1.89Q111.1 380.47-1 455.19c-.76.5-1.78.75-2.12 1.76-1.19-.52-.54-1.55-.54-2.3q-.07-26.41 0-52.81c.78-.55 1.55-1.12 2.34-1.64Q69.35 353.08 140 305.94c.78-.52 1.86-.83 2.25-2.1H-.26c-1.14 0-2.29-.09-3.43-.14ZM685.15 181.42q-147.51 0-295 .07c-2.87 0-3.55-.64-3.55-3.53q.15-90.11.07-180.23h30.42c0 1.14.14 2.28.14 3.43V121c1.15-.7 1.88-1.11 2.57-1.58Q509.89 59.39 600-.68c.68-.46 1.58-.71 1.94-1.58h27.55c-.54 1.11-1.71 1.47-2.63 2.08Q525.63 67.33 424.29 134.66c-5.43 3.59-8.17 7.19-7.15 13.67.3 1.91.61 2.57 2.62 2.56q16.21-.14 32.42 0a10.27 10.27 0 0 0 6.12-1.89Q570.36 74.22 682.46-.5c.76-.5 1.78-.75 2.12-1.76 1.19.52.54 1.55.54 2.3q.07 26.41 0 52.81c-.78.55-1.53 1.13-2.33 1.66q-70.68 47.12-141.36 94.25c-.78.52-1.84.86-2.3 2.1h142.59c1.14 0 2.29.09 3.43.14Z" transform="translate(3.83 2.27)" fill="#FFF"/>
<path class="cls-3" d="M601.91-2.27c-.36.88-1.25 1.12-1.94 1.58Q509.9 59.4 419.8 119.44c-.7.46-1.42.88-2.57 1.58V1.16c0-1.14-.09-2.28-.14-3.43ZM417.08 457c0-1.14.14-2.28.14-3.43V334.27c1-.43 1.5.32 2.09.71q90.57 60.37 181.13 120.77c.53.36 1.24.53 1.47 1.25ZM264.39-2.27c0 1.14-.14 2.28-.14 3.43v119.28c-1 .41-1.52-.34-2.11-.73Q171.57 59.37 81-1a17.5 17.5 0 0 1-1.49-1.24ZM79.55 457c7.55-5.67 15.57-10.63 23.41-15.86q79.2-52.87 158.45-105.66c.78-.52 1.59-1 2.83-1.76v119.85c0 1.14.09 2.28.14 3.43Z" transform="translate(3.83 2.27)" fill="#25305e"/>
<path class="cls-1" d="M684.57-2.27c-.34 1-1.36 1.26-2.12 1.76Q570.38 74.25 458.3 149a10.27 10.27 0 0 1-6.11 1.88q-16.21-.14-32.42 0c-2 0-2.32-.65-2.62-2.56-1-6.48 1.72-10.08 7.15-13.67Q525.74 67.5 626.84-.19c.92-.61 2.09-1 2.63-2.08ZM-3.11 457c.34-1 1.36-1.26 2.12-1.76q112.07-74.75 224.15-149.5a10.27 10.27 0 0 1 6.11-1.89q16.21.15 32.42 0c2 0 2.33.61 2.64 2.54 1 6.48-1.68 10.09-7.12 13.69q-101.69 67.33-203 135.18c-.77.51-1.74.8-2.17 1.74ZM684.57 457c-.4-1.1-1.5-1.38-2.34-1.94q-111.58-74.48-223.18-148.88l-2.59-1.75c.63-1 1.47-.55 2.13-.55h49.64a7.31 7.31 0 0 1 4.3 1.21l171.94 114.66c.24.16.46.35.68.52v34.44c-.04.7.61 1.73-.58 2.29ZM-3.11-2.27C-2.66-1.21-1.57-.91-.73-.35Q110.88 74.1 222.51 148.52c.86.57 1.69 1.18 2.57 1.79-.68.9-1.51.51-2.2.51h-49.64a6.87 6.87 0 0 1-4.05-1.07Q82.76 92.11-3.69 34.47V.01c.04-.74-.6-1.77.58-2.28Z" transform="translate(3.83 2.27)" fill="#ca1831"/>
<path class="cls-3" d="M-3.69 52.84q43 28.72 86 57.43 28.84 19.24 57.69 38.48a5.05 5.05 0 0 1 2.35 2.1H-.26c-1.14 0-2.29.09-3.43.14V52.84ZM685.15 151c-1.14 0-2.29-.14-3.43-.14H539.16c.47-1.25 1.52-1.58 2.3-2.1q70.67-47.14 141.36-94.25c.79-.53 1.55-1.11 2.33-1.66ZM-3.69 303.69c1.14 0 2.29.14 3.43.14h142.54c-.38 1.27-1.47 1.58-2.25 2.1Q69.36 353.09-1.35 400.21c-.79.53-1.56 1.1-2.34 1.64v-98.16ZM685.15 401.85q-32-21.42-64.07-42.83-39.8-26.55-79.63-53.07c-.77-.51-1.51-1.08-3-2.12h143.27c1.14 0 2.29-.09 3.43-.14Z" transform="translate(3.83 2.27)" fill="#25305e"/></svg>