<svg version="1.1" id="Layer_1" xmlns="http://www.w3.org/2000/svg" xmlns:xlink="http://www.w3.org/1999/xlink" x="0" y="0" viewBox="0 0 170 170" xml:space="preserve">
<style>.st2{fill:#01257d}.st3{fill:#cd152c}</style><defs><circle id="SVGID_1_" cx="85" cy="85" r="85"/></defs><clipPath id="SVGID_2_"><use xlink:href="#SVGID_1_" overflow="visible"/></clipPath><g clip-path="url(#SVGID_2_)">
<path d="M212.5.4c.3.2.9-.4.8.4V169c0 1.5-.3 1.9-1.9 1.9H-40.4c-1.5 0-1.9-.3-1.9-1.9V2.2c0-1.5.3-1.9 1.9-1.9 9.2.1 18.5 0 27.7 0 .1 1 1 1.2 1.7 1.6 22.7 15.2 45.5 30.3 68.2 45.5.5.4 1 .9 1.9.9v-42c0-2-.1-4-.1-6h53c-.5.8-.4 1.7-.4 2.5v42.7c22.5-15 44.7-29.8 67-44.7-.9-.6-1.7-.4-2.4-.4h-50.3c-.7 0-1.5.2-2.2-.2h63.5c-10.9 7.3-21.9 14.6-32.8 22-13.7 9.2-27.5 18.3-41.2 27.5-.8.5-1.8.9-1.7 2.2.1 3.6 0 7.3 0 10.9 0 .6 0 1.2.8 1.1 2.3-.1 4.6.3 6.8-1.2 30.4-20.4 60.9-40.7 91.4-61 .8-.2 1.4-.8 2-1.3zM12.6 100H65c1.9 0 2.4.6 2.4 2.4-.1 21.9 0 43.8-.1 65.8 0 1.6.4 2 2 2 10.8-.1 21.6-.1 32.4 0 1.7 0 2.1-.5 2.1-2.1-.1-21.7 0-43.4 0-65.2v-1.4c-.1-1 .4-1.5 1.4-1.4h1.6c34.5 0 68.9 0 103.4.1 1.6 0 2.6 0 2.6-2.2-.1-8.4-.1-16.9 0-25.3 0-1.5-.5-1.9-2-1.9-34.8.1-69.6.1-104.4.1-2.6 0-2.6 0-2.6-2.5 0-21.7 0-43.4.1-65.2 0-1.9-.4-2.5-2.4-2.5-10.5.1-21 .1-31.6 0-1.9 0-2.5.5-2.5 2.5.1 21.7.1 43.3.1 65 0 2.7 0 2.7-2.8 2.7h-104c-1.7 0-2.3.3-2.2 2.2.1 8.4.1 16.7 0 25.1 0 1.6.3 2.1 2.1 2.1 17.2-.3 34.6-.3 52-.3zm99.5 22.1c-.5.5-.4.9-.4 1.3 0 15 0 29.9-.1 44.9 0 1.8.8 1.7 2 1.7h68c.5 0 1.2.2 1.8-.3-23.8-15.9-47.5-31.7-71.3-47.6zM-8 169.9c.7.1.8.2.9.2h64.8c1.5 0 1.6-.7 1.6-1.8V127c0-.5.2-1.1-.4-1.7L-8 169.9zM24.6 107c0-.1-.1-.3-.1-.4h-64.2c-1.6 0-1.8.6-1.8 2v40.9c0 .5-.3 1.1.4 1.5 21.8-14.8 43.7-29.4 65.7-44zm121.8-43.2c.5.5.9.4 1.3.4h62.9c1.7 0 2-.7 2-2.1-.1-13.6-.1-27.1-.1-40.7 0-.5.3-1.1-.4-1.5-21.8 14.6-43.7 29.2-65.7 43.9zM-41 169.7c0 .1.1.2.1.4h22.8c1.3 0 2.3-.3 3.4-1 9.2-6.2 18.5-12.4 27.7-18.5 14.8-9.9 29.6-19.7 44.4-29.6.8-.5 1.8-.9 1.8-2.2-.1-3.6 0-7.3 0-10.9 0-.6 0-1.3-.9-1.3-2.3.1-4.4-.2-6.6 1.2-20.6 13.9-41.3 27.6-62 41.4-10.2 6.8-20.4 13.7-30.7 20.5zm159.1-63.2c-.1.1-.1.3-.2.4 31.5 21 62.9 42 94.7 63.2v-15.8c0-1-.6-1.5-1.4-2-22.4-15-44.9-29.9-67.3-44.9-.7-.5-1.4-.9-2.2-.9h-23.6zM-41.7.6v15.6c0 1.2.6 1.6 1.4 2.2 22.4 14.9 44.8 29.8 67.2 44.8 1 .7 2 1 3.2 1h21.4c.5 0 1.1.3 1.5-.5-31.5-21-62.9-42-94.7-63.1zm0 22.2v39.7c0 1.7.8 1.6 1.9 1.6h58.1c.5 0 1.1.3 1.5-.4C-.6 50.1-21 36.6-41.7 22.8zm254.2 125c.1-.6.1-.8.1-1.1 0-12.7 0-25.5.1-38.2 0-1.9-.9-2-2.3-2h-57.8c-.4 0-.9-.3-1.4.4 20.3 13.6 40.7 27.2 61.3 40.9z" fill="#faf9fa"/>
<path class="st2" d="M59.1.4c0 2 .1 4 .1 6v42c-.9 0-1.4-.6-1.9-.9C34.6 32.4 11.8 17.2-10.9 2c-.6-.4-1.5-.7-1.7-1.6h71.7zM123.9.4c.7.4 1.5.2 2.2.2h50.3c.7 0 1.4-.2 2.4.4-22.3 14.9-44.5 29.6-67 44.7V3c0-.9-.1-1.7.4-2.5 3.8-.1 7.7-.1 11.7-.1z" fill="#01257d"/>
<path class="st3" d="M212.5.4c-.6.5-1.2 1.1-1.8 1.5-30.5 20.3-61 40.6-91.4 61-2.2 1.5-4.5 1.1-6.8 1.2-.7 0-.8-.6-.8-1.1V52.1c0-1.3.9-1.7 1.7-2.2 13.7-9.2 27.5-18.3 41.2-27.5 10.9-7.3 21.9-14.6 32.8-22h25.1z" fill="#cd152c"/>
<path class="st3" d="M12.6 100h-52.2c-1.7 0-2.1-.5-2.1-2.1.1-8.4.1-16.7 0-25.1 0-1.9.5-2.2 2.2-2.2h104c2.8 0 2.8 0 2.8-2.7 0-21.7 0-43.3-.1-65 0-2 .6-2.5 2.5-2.5 10.5.1 21 .1 31.6 0 2 0 2.4.6 2.4 2.5-.1 21.7-.1 43.4-.1 65.2 0 2.5.1 2.5 2.6 2.5 34.8 0 69.6 0 104.4-.1 1.5 0 2 .4 2 1.9-.1 8.4-.1 16.9 0 25.3 0 2.2-1 2.2-2.6 2.2-34.5 0-68.9 0-103.4-.1H105c-1-.1-1.5.4-1.4 1.4V167.8c0 1.6-.3 2.1-2.1 2.1-10.8-.1-21.6-.1-32.4 0-1.6 0-2-.4-2-2 .1-21.9 0-43.8.1-65.8 0-1.8-.5-2.4-2.4-2.4-17.3.3-34.8.3-52.2.3z" fill="#cd152c"/>
<path class="st2" d="M112.1 122.1c23.7 15.8 47.5 31.7 71.4 47.6-.6.5-1.3.3-1.8.3h-68c-1.2 0-2.1.1-2-1.7.1-15 0-29.9.1-44.9 0-.3-.2-.8.3-1.3zM-8 169.9c22.5-15 44.7-29.8 66.8-44.5.6.6.4 1.2.4 1.7v41.3c0 1.1 0 1.8-1.6 1.8-21.6-.1-43.2 0-64.8 0 0-.1-.1-.2-.8-.3zM24.6 107c-22 14.6-43.9 29.3-65.9 43.9-.6-.5-.4-1-.4-1.5v-40.9c0-1.4.2-2 1.8-2 21.2.1 42.4 0 63.5 0h.7c.2.2.2.3.3.5zM146.4 63.8c22-14.7 43.9-29.3 65.8-43.9.6.4.4 1 .4 1.5 0 13.6 0 27.1.1 40.7 0 1.5-.3 2.1-2 2.1-21-.1-41.9 0-62.9 0-.4 0-.9.1-1.4-.4z" fill="#01257d"/>
<path class="st3" d="M-41 169.7c10.2-6.8 20.5-13.7 30.7-20.5 20.7-13.8 41.4-27.6 62-41.4 2.1-1.4 4.3-1.2 6.6-1.2.9 0 .9.6.9 1.3v10.9c0 1.3-1 1.7-1.8 2.2-14.8 9.9-29.6 19.7-44.4 29.6-9.2 6.2-18.5 12.3-27.7 18.5-1.1.7-2.1 1-3.4 1h-22.8c0-.2 0-.3-.1-.4zM118.1 106.5h23.6c.9 0 1.5.4 2.2.9 22.4 15 44.9 29.9 67.3 44.9.8.5 1.4 1 1.4 2v15.8c-31.8-21.2-63.2-42.2-94.7-63.2.1-.1.1-.2.2-.4zM-41.7.6c31.8 21.1 63.2 42.1 94.7 63-.4.8-1 .5-1.5.5H30.1c-1.2 0-2.2-.3-3.2-1l-67.2-44.7c-.8-.5-1.4-1-1.4-2.2.1-5 0-10.1 0-15.6z" fill="#cd152c"/>
<path class="st2" d="M-41.7 22.8C-21 36.6-.6 50.1 19.8 63.7c-.4.8-1 .4-1.5.4h-58.1c-1.2 0-2 0-1.9-1.6.1-13.1 0-26.1 0-39.7zM212.5 147.8c-20.6-13.7-41-27.3-61.4-40.9.5-.6 1-.4 1.4-.4h57.8c1.5 0 2.3.1 2.3 2-.1 12.7-.1 25.5-.1 38.2.1.3 0 .5 0 1.1z" fill="#01257d"/></g></svg>